<svg width="259" height="53" viewBox="0 0 259 53" fill="none" xmlns="http://www.w3.org/2000/svg">
<g clip-path="url(#clip0)">
<mask id="path-1-inside-1" fill="white">
<path d="M40.4834 48.5298C44.9868 45.7598 48.5475 41.7159 50.7054 36.9209C52.8633 32.126 53.5192 26.8003 52.5882 21.6324C51.6573 16.4644 49.1823 11.6918 45.4832 7.93129C41.7841 4.1708 37.031 1.59538 31.8382 0.53791C26.6454 -0.519561 21.2516 -0.0104663 16.3541 1.99939C11.4565 4.00925 7.28037 7.42747 4.36539 11.8122C1.4504 16.197 -0.0693983 21.3467 0.00243255 26.5957C0.0742634 31.8448 1.73442 36.9518 4.76832 41.2567L8.21537 38.8748C5.6627 35.2528 4.26587 30.9558 4.20543 26.5393C4.145 22.1229 5.42373 17.79 7.87634 14.1008C10.329 10.4115 13.8427 7.53549 17.9634 5.84443C22.0841 4.15337 26.6223 3.72503 30.9915 4.61477C35.3606 5.5045 39.3598 7.67142 42.4721 10.8354C45.5845 13.9994 47.6669 18.015 48.4502 22.3633C49.2334 26.7115 48.6816 31.1924 46.866 35.2268C45.0504 39.2612 42.0544 42.6636 38.2654 44.9943L40.4834 48.5298Z"/>
</mask>
<path d="M40.4834 48.5298C44.9868 45.7598 48.5475 41.7159 50.7054 36.9209C52.8633 32.126 53.5192 26.8003 52.5882 21.6324C51.6573 16.4644 49.1823 11.6918 45.4832 7.93129C41.7841 4.1708 37.031 1.59538 31.8382 0.53791C26.6454 -0.519561 21.2516 -0.0104663 16.3541 1.99939C11.4565 4.00925 7.28037 7.42747 4.36539 11.8122C1.4504 16.197 -0.0693983 21.3467 0.00243255 26.5957C0.0742634 31.8448 1.73442 36.9518 4.76832 41.2567L8.21537 38.8748C5.6627 35.2528 4.26587 30.9558 4.20543 26.5393C4.145 22.1229 5.42373 17.79 7.87634 14.1008C10.329 10.4115 13.8427 7.53549 17.9634 5.84443C22.0841 4.15337 26.6223 3.72503 30.9915 4.61477C35.3606 5.5045 39.3598 7.67142 42.4721 10.8354C45.5845 13.9994 47.6669 18.015 48.4502 22.3633C49.2334 26.7115 48.6816 31.1924 46.866 35.2268C45.0504 39.2612 42.0544 42.6636 38.2654 44.9943L40.4834 48.5298Z" stroke="#337AEF" stroke-width="10.9118" mask="url(#path-1-inside-1)"/>
<mask id="path-2-inside-2" fill="white">
<path d="M36.7076 42.4644C39.8206 40.4631 42.2854 37.5902 43.7995 34.1984C45.3137 30.8065 45.8112 27.0434 45.2311 23.3708C44.6511 19.6983 43.0185 16.2762 40.534 13.5246C38.0495 10.773 34.8211 8.81176 31.2451 7.88152C27.6691 6.95129 23.9012 7.09257 20.4039 8.28804C16.9065 9.48351 13.8319 11.6811 11.5576 14.6111C9.28321 17.5412 7.90804 21.076 7.60086 24.7819C7.29369 28.4877 8.06788 32.2032 9.8284 35.4722L13.8284 33.2884C12.4903 30.8037 11.9019 27.9796 12.1353 25.1629C12.3688 22.3462 13.4141 19.6594 15.1428 17.4323C16.8715 15.2053 19.2084 13.5349 21.8666 12.6263C24.5249 11.7176 27.3888 11.6102 30.1069 12.3173C32.8249 13.0243 35.2788 14.5151 37.1672 16.6065C39.0556 18.6979 40.2965 21.2989 40.7374 24.0904C41.1783 26.8818 40.8001 29.7421 39.6492 32.3202C38.4984 34.8983 36.6249 37.0819 34.2588 38.6031L36.7076 42.4644Z"/>
</mask>
<path d="M36.7076 42.4644C39.8206 40.4631 42.2854 37.5902 43.7995 34.1984C45.3137 30.8065 45.8112 27.0434 45.2311 23.3708C44.6511 19.6983 43.0185 16.2762 40.534 13.5246C38.0495 10.773 34.8211 8.81176 31.2451 7.88152C27.6691 6.95129 23.9012 7.09257 20.4039 8.28804C16.9065 9.48351 13.8319 11.6811 11.5576 14.6111C9.28321 17.5412 7.90804 21.076 7.60086 24.7819C7.29369 28.4877 8.06788 32.2032 9.8284 35.4722L13.8284 33.2884C12.4903 30.8037 11.9019 27.9796 12.1353 25.1629C12.3688 22.3462 13.4141 19.6594 15.1428 17.4323C16.8715 15.2053 19.2084 13.5349 21.8666 12.6263C24.5249 11.7176 27.3888 11.6102 30.1069 12.3173C32.8249 13.0243 35.2788 14.5151 37.1672 16.6065C39.0556 18.6979 40.2965 21.2989 40.7374 24.0904C41.1783 26.8818 40.8001 29.7421 39.6492 32.3202C38.4984 34.8983 36.6249 37.0819 34.2588 38.6031L36.7076 42.4644Z" stroke="#337AEF" stroke-width="10.9118" mask="url(#path-2-inside-2)"/>
<mask id="path-3-inside-3" fill="white">
<path d="M32.5907 35.9339C34.4919 34.7504 35.9981 33.0393 36.9214 31.0144C37.8446 28.9895 38.1438 26.7405 37.7816 24.5484C37.4194 22.3563 36.4119 20.3184 34.8849 18.6891C33.358 17.0599 31.3792 15.9116 29.196 15.3877C27.0127 14.8638 24.7217 14.9876 22.6092 15.7435C20.4966 16.4995 18.6563 17.8541 17.3179 19.6381C15.9796 21.4221 15.2027 23.5565 15.0843 25.7745C14.9658 27.9925 15.5111 30.1959 16.652 32.1093L20.7491 29.7216C20.0829 28.6043 19.7645 27.3176 19.8337 26.0224C19.9029 24.7272 20.3565 23.4808 21.138 22.439C21.9196 21.3973 22.9942 20.6062 24.2278 20.1648C25.4615 19.7234 26.7993 19.6511 28.0742 19.957C29.3491 20.263 30.5046 20.9335 31.3963 21.8849C32.2879 22.8363 32.8763 24.0264 33.0877 25.3064C33.2992 26.5865 33.1245 27.8998 32.5854 29.0822C32.0463 30.2647 31.1667 31.2639 30.0565 31.9549L32.5907 35.9339Z"/>
</mask>
<path d="M32.5907 35.9339C34.4919 34.7504 35.9981 33.0393 36.9214 31.0144C37.8446 28.9895 38.1438 26.7405 37.7816 24.5484C37.4194 22.3563 36.4119 20.3184 34.8849 18.6891C33.358 17.0599 31.3792 15.9116 29.196 15.3877C27.0127 14.8638 24.7217 14.9876 22.6092 15.7435C20.4966 16.4995 18.6563 17.8541 17.3179 19.6381C15.9796 21.4221 15.2027 23.5565 15.0843 25.7745C14.9658 27.9925 15.5111 30.1959 16.652 32.1093L20.7491 29.7216C20.0829 28.6043 19.7645 27.3176 19.8337 26.0224C19.9029 24.7272 20.3565 23.4808 21.138 22.439C21.9196 21.3973 22.9942 20.6062 24.2278 20.1648C25.4615 19.7234 26.7993 19.6511 28.0742 19.957C29.3491 20.263 30.5046 20.9335 31.3963 21.8849C32.2879 22.8363 32.8763 24.0264 33.0877 25.3064C33.2992 26.5865 33.1245 27.8998 32.5854 29.0822C32.0463 30.2647 31.1667 31.2639 30.0565 31.9549L32.5907 35.9339Z" stroke="#337AEF" stroke-width="10.9118" mask="url(#path-3-inside-3)"/>
<path d="M12.7305 31.436L25.7291 52.682C23.3955 52.682 22.0969 52.5784 19.7852 52.1027L9.74272 35.3331L12.7305 31.436Z" fill="#337AEF"/>
<path d="M7.16211 37.3232L16.2827 51.0927C14.2599 51.3628 6.11557 44.3371 5.15629 41.9574L3.75731 39.7837L7.16211 37.3232Z" fill="#337AEF"/>
<path d="M20.6601 29.5948L34.4287 51.7429C31.841 52.2774 31.6009 52.4021 29.0698 52.5064L16.6277 32.0859L20.6601 29.5948Z" fill="#337AEF"/>
</g>
<path d="M78.8492 14.9994H70.3124V38.6763H66.8284V14.9994H58.3098V12.1173H78.8492V14.9994ZM90.414 21.9675C89.9033 21.8824 89.35 21.8398 88.7541 21.8398C86.5409 21.8398 85.039 22.7822 84.2486 24.6672V38.6763H80.874V18.9395H84.1574L84.2121 21.2196C85.3187 19.4563 86.8874 18.5746 88.9183 18.5746C89.575 18.5746 90.0735 18.6598 90.414 18.83V21.9675ZM104.989 38.6763C104.794 38.2871 104.636 37.594 104.514 36.5968C102.946 38.2263 101.073 39.0411 98.8961 39.0411C96.9504 39.0411 95.3513 38.4939 94.0987 37.3994C92.8583 36.2928 92.2382 34.8943 92.2382 33.204C92.2382 31.1488 93.0164 29.5558 94.573 28.4248C96.1417 27.2817 98.3428 26.7102 101.176 26.7102H104.46V25.1597C104.46 23.9801 104.107 23.0437 103.402 22.3505C102.696 21.6452 101.657 21.2926 100.282 21.2926C99.0785 21.2926 98.0692 21.5966 97.2544 22.2046C96.4397 22.8126 96.0323 23.5484 96.0323 24.4118H92.6395C92.6395 23.4268 92.986 22.4782 93.6792 21.5662C94.3845 20.642 95.333 19.9123 96.5248 19.3773C97.7287 18.8422 99.0481 18.5746 100.483 18.5746C102.757 18.5746 104.539 19.1462 105.828 20.2893C107.117 21.4203 107.786 22.9829 107.834 24.9773V34.0613C107.834 35.8732 108.065 37.3143 108.527 38.3844V38.6763H104.989ZM99.3886 36.1043C100.447 36.1043 101.45 35.8307 102.398 35.2834C103.347 34.7362 104.034 34.0248 104.46 33.1492V29.0997H101.815C97.6801 29.0997 95.6127 30.3097 95.6127 32.7297C95.6127 33.7877 95.9654 34.6146 96.6707 35.2105C97.376 35.8063 98.282 36.1043 99.3886 36.1043ZM112.303 28.6437C112.303 25.6157 113.021 23.1836 114.456 21.3473C115.891 19.4989 117.77 18.5746 120.092 18.5746C122.403 18.5746 124.233 19.3651 125.583 20.946V10.658H128.957V38.6763H125.856L125.692 36.5603C124.342 38.2142 122.464 39.0411 120.056 39.0411C117.77 39.0411 115.903 38.1047 114.456 36.232C113.021 34.3592 112.303 31.9149 112.303 28.8991V28.6437ZM115.678 29.0268C115.678 31.2643 116.14 33.0155 117.064 34.2802C117.988 35.5449 119.265 36.1772 120.895 36.1772C123.035 36.1772 124.598 35.2166 125.583 33.2952V24.2294C124.573 22.3688 123.023 21.4385 120.931 21.4385C119.277 21.4385 117.988 22.0769 117.064 23.3538C116.14 24.6307 115.678 26.5217 115.678 29.0268ZM142.401 39.0411C139.726 39.0411 137.549 38.1655 135.871 36.4144C134.193 34.6511 133.353 32.298 133.353 29.3551V28.7349C133.353 26.777 133.724 25.032 134.466 23.4997C135.22 21.9553 136.266 20.7514 137.604 19.888C138.953 19.0124 140.413 18.5746 141.981 18.5746C144.547 18.5746 146.542 19.4198 147.965 21.1102C149.387 22.8005 150.099 25.2205 150.099 28.3701V29.7746H136.728C136.777 31.7204 137.342 33.2952 138.424 34.4991C139.519 35.6908 140.905 36.2867 142.583 36.2867C143.775 36.2867 144.784 36.0435 145.611 35.5571C146.438 35.0706 147.162 34.4261 147.782 33.6235L149.843 35.2287C148.189 37.7703 145.709 39.0411 142.401 39.0411ZM141.981 21.3473C140.619 21.3473 139.476 21.8459 138.552 22.8431C137.628 23.8281 137.056 25.2144 136.837 27.002H146.724V26.7466C146.627 25.032 146.165 23.7065 145.338 22.7701C144.511 21.8216 143.392 21.3473 141.981 21.3473ZM160.277 30.3036L160.788 33.8059L161.536 30.6502L166.789 12.1173H169.744L174.87 30.6502L175.6 33.8606L176.165 30.2854L180.288 12.1173H183.808L177.369 38.6763H174.177L168.705 19.3225L168.285 17.2978L167.865 19.3225L162.193 38.6763H159L152.579 12.1173H156.082L160.277 30.3036ZM198.748 38.6763C198.553 38.2871 198.395 37.594 198.273 36.5968C196.705 38.2263 194.832 39.0411 192.655 39.0411C190.709 39.0411 189.11 38.4939 187.858 37.3994C186.617 36.2928 185.997 34.8943 185.997 33.204C185.997 31.1488 186.775 29.5558 188.332 28.4248C189.901 27.2817 192.102 26.7102 194.935 26.7102H198.219V25.1597C198.219 23.9801 197.866 23.0437 197.161 22.3505C196.455 21.6452 195.416 21.2926 194.041 21.2926C192.837 21.2926 191.828 21.5966 191.013 22.2046C190.199 22.8126 189.791 23.5484 189.791 24.4118H186.398C186.398 23.4268 186.745 22.4782 187.438 21.5662C188.143 20.642 189.092 19.9123 190.284 19.3773C191.488 18.8422 192.807 18.5746 194.242 18.5746C196.516 18.5746 198.298 19.1462 199.587 20.2893C200.876 21.4203 201.545 22.9829 201.593 24.9773V34.0613C201.593 35.8732 201.824 37.3143 202.286 38.3844V38.6763H198.748ZM193.148 36.1043C194.206 36.1043 195.209 35.8307 196.157 35.2834C197.106 34.7362 197.793 34.0248 198.219 33.1492V29.0997H195.574C191.439 29.0997 189.372 30.3097 189.372 32.7297C189.372 33.7877 189.724 34.6146 190.43 35.2105C191.135 35.8063 192.041 36.1043 193.148 36.1043ZM213.103 34.0978L217.992 18.9395H221.439L214.362 38.6763H211.79L204.639 18.9395H208.087L213.103 34.0978ZM232.621 39.0411C229.946 39.0411 227.769 38.1655 226.091 36.4144C224.413 34.6511 223.574 32.298 223.574 29.3551V28.7349C223.574 26.777 223.944 25.032 224.686 23.4997C225.44 21.9553 226.486 20.7514 227.824 19.888C229.174 19.0124 230.633 18.5746 232.202 18.5746C234.768 18.5746 236.762 19.4198 238.185 21.1102C239.607 22.8005 240.319 25.2205 240.319 28.3701V29.7746H226.948C226.997 31.7204 227.562 33.2952 228.645 34.4991C229.739 35.6908 231.125 36.2867 232.804 36.2867C233.995 36.2867 235.005 36.0435 235.832 35.5571C236.659 35.0706 237.382 34.4261 238.002 33.6235L240.063 35.2287C238.41 37.7703 235.929 39.0411 232.621 39.0411ZM232.202 21.3473C230.84 21.3473 229.697 21.8459 228.772 22.8431C227.848 23.8281 227.277 25.2144 227.058 27.002H236.944V26.7466C236.847 25.032 236.385 23.7065 235.558 22.7701C234.731 21.8216 233.612 21.3473 232.202 21.3473Z" fill="black"/>
<defs>
<clipPath id="clip0">
<rect width="53" height="53" fill="white"/>
</clipPath>
</defs>
</svg>
