<svg width="262" height="54" viewBox="0 0 262 54" fill="none" xmlns="http://www.w3.org/2000/svg">
<g clip-path="url(#clip0)">
<g clip-path="url(#clip1)">
<mask id="path-1-inside-1" fill="white">
<path d="M41.0308 49.186C45.595 46.3785 49.2039 42.2799 51.391 37.4201C53.578 32.5603 54.2428 27.1627 53.2992 21.9249C52.3557 16.687 49.8473 11.8498 46.0982 8.03852C42.3491 4.22719 37.5317 1.61695 32.2687 0.545183C27.0056 -0.526586 21.5389 -0.0106078 16.5752 2.02642C11.6114 4.06345 7.37881 7.52789 4.42441 11.9719C1.47001 16.416 -0.0703366 21.6353 0.00246544 26.9553C0.0752675 32.2753 1.75787 37.4514 4.83279 41.8146L8.32644 39.4004C5.73926 35.7294 4.32355 31.3743 4.26229 26.8982C4.20104 22.422 5.49706 18.0305 7.98284 14.2914C10.4686 10.5523 14.0299 7.63737 18.2063 5.92345C22.3827 4.20953 26.9823 3.77539 31.4105 4.67716C35.8387 5.57893 39.892 7.77514 43.0464 10.9819C46.2008 14.1887 48.3113 18.2586 49.1052 22.6656C49.8991 27.0726 49.3398 31.6141 47.4996 35.7031C45.6595 39.792 42.623 43.2404 38.7828 45.6026L41.0308 49.186Z"/>
</mask>
<path d="M41.0308 49.186C45.595 46.3785 49.2039 42.2799 51.391 37.4201C53.578 32.5603 54.2428 27.1627 53.2992 21.9249C52.3557 16.687 49.8473 11.8498 46.0982 8.03852C42.3491 4.22719 37.5317 1.61695 32.2687 0.545183C27.0056 -0.526586 21.5389 -0.0106078 16.5752 2.02642C11.6114 4.06345 7.37881 7.52789 4.42441 11.9719C1.47001 16.416 -0.0703366 21.6353 0.00246544 26.9553C0.0752675 32.2753 1.75787 37.4514 4.83279 41.8146L8.32644 39.4004C5.73926 35.7294 4.32355 31.3743 4.26229 26.8982C4.20104 22.422 5.49706 18.0305 7.98284 14.2914C10.4686 10.5523 14.0299 7.63737 18.2063 5.92345C22.3827 4.20953 26.9823 3.77539 31.4105 4.67716C35.8387 5.57893 39.892 7.77514 43.0464 10.9819C46.2008 14.1887 48.3113 18.2586 49.1052 22.6656C49.8991 27.0726 49.3398 31.6141 47.4996 35.7031C45.6595 39.792 42.623 43.2404 38.7828 45.6026L41.0308 49.186Z" stroke="#FAFBFF" stroke-width="11.0593" mask="url(#path-1-inside-1)"/>
<mask id="path-2-inside-2" fill="white">
<path d="M37.2031 43.0389C40.3581 41.0105 42.8563 38.0987 44.3909 34.661C45.9255 31.2233 46.4298 27.4093 45.8419 23.6871C45.2539 19.9649 43.5994 16.4965 41.0813 13.7077C38.5632 10.919 35.2911 8.93118 31.6668 7.98836C28.0424 7.04555 24.2236 7.18875 20.6789 8.40038C17.1343 9.61201 14.0181 11.8393 11.713 14.809C9.40792 17.7786 8.01415 21.3613 7.70283 25.1172C7.3915 28.8731 8.17616 32.6388 9.96048 35.9521L14.0146 33.7388C12.6584 31.2204 12.062 28.3582 12.2986 25.5034C12.5352 22.6486 13.5946 19.9254 15.3467 17.6683C17.0988 15.4111 19.4673 13.7182 22.1615 12.7972C24.8557 11.8763 27.7584 11.7675 30.5131 12.4841C33.2679 13.2007 35.7549 14.7116 37.6689 16.8313C39.5829 18.951 40.8405 21.5872 41.2874 24.4164C41.7342 27.2455 41.3509 30.1445 40.1845 32.7575C39.0181 35.3704 37.1193 37.5836 34.7212 39.1253L37.2031 43.0389Z"/>
</mask>
<path d="M37.2031 43.0389C40.3581 41.0105 42.8563 38.0987 44.3909 34.661C45.9255 31.2233 46.4298 27.4093 45.8419 23.6871C45.2539 19.9649 43.5994 16.4965 41.0813 13.7077C38.5632 10.919 35.2911 8.93118 31.6668 7.98836C28.0424 7.04555 24.2236 7.18875 20.6789 8.40038C17.1343 9.61201 14.0181 11.8393 11.713 14.809C9.40792 17.7786 8.01415 21.3613 7.70283 25.1172C7.3915 28.8731 8.17616 32.6388 9.96048 35.9521L14.0146 33.7388C12.6584 31.2204 12.062 28.3582 12.2986 25.5034C12.5352 22.6486 13.5946 19.9254 15.3467 17.6683C17.0988 15.4111 19.4673 13.7182 22.1615 12.7972C24.8557 11.8763 27.7584 11.7675 30.5131 12.4841C33.2679 13.2007 35.7549 14.7116 37.6689 16.8313C39.5829 18.951 40.8405 21.5872 41.2874 24.4164C41.7342 27.2455 41.3509 30.1445 40.1845 32.7575C39.0181 35.3704 37.1193 37.5836 34.7212 39.1253L37.2031 43.0389Z" stroke="#FAFBFF" stroke-width="11.0593" mask="url(#path-2-inside-2)"/>
<mask id="path-3-inside-3" fill="white">
<path d="M33.0317 36.4196C34.9586 35.2201 36.4852 33.4859 37.4209 31.4336C38.3566 29.3813 38.6599 27.1019 38.2928 24.8802C37.9257 22.6585 36.9046 20.593 35.357 18.9417C33.8094 17.2904 31.8039 16.1266 29.5911 15.5956C27.3783 15.0647 25.0563 15.1901 22.9152 15.9563C20.7741 16.7224 18.9089 18.0953 17.5525 19.9035C16.196 21.7116 15.4086 23.8748 15.2886 26.1229C15.1685 28.3709 15.7212 30.604 16.8775 32.5433L21.0301 30.1233C20.3548 28.9909 20.0321 27.6868 20.1022 26.3741C20.1723 25.0614 20.6321 23.7982 21.4242 22.7423C22.2163 21.6864 23.3055 20.8847 24.5558 20.4373C25.8061 19.9899 27.162 19.9167 28.4541 20.2267C29.7463 20.5368 30.9174 21.2164 31.8211 22.1807C32.7248 23.1449 33.3211 24.3511 33.5355 25.6485C33.7498 26.9458 33.5727 28.2769 33.0264 29.4753C32.48 30.6737 31.5885 31.6864 30.4633 32.3869L33.0317 36.4196Z"/>
</mask>
<path d="M33.0317 36.4196C34.9586 35.2201 36.4852 33.4859 37.4209 31.4336C38.3566 29.3813 38.6599 27.1019 38.2928 24.8802C37.9257 22.6585 36.9046 20.593 35.357 18.9417C33.8094 17.2904 31.8039 16.1266 29.5911 15.5956C27.3783 15.0647 25.0563 15.1901 22.9152 15.9563C20.7741 16.7224 18.9089 18.0953 17.5525 19.9035C16.196 21.7116 15.4086 23.8748 15.2886 26.1229C15.1685 28.3709 15.7212 30.604 16.8775 32.5433L21.0301 30.1233C20.3548 28.9909 20.0321 27.6868 20.1022 26.3741C20.1723 25.0614 20.6321 23.7982 21.4242 22.7423C22.2163 21.6864 23.3055 20.8847 24.5558 20.4373C25.8061 19.9899 27.162 19.9167 28.4541 20.2267C29.7463 20.5368 30.9174 21.2164 31.8211 22.1807C32.7248 23.1449 33.3211 24.3511 33.5355 25.6485C33.7498 26.9458 33.5727 28.2769 33.0264 29.4753C32.48 30.6737 31.5885 31.6864 30.4633 32.3869L33.0317 36.4196Z" stroke="#FAFBFF" stroke-width="11.0593" mask="url(#path-3-inside-3)"/>
<path d="M12.9023 31.8613L26.0768 53.3946C23.7115 53.3945 22.3954 53.2895 20.0524 52.8074L9.8742 35.8111L12.9023 31.8613Z" fill="#FAFBFF"/>
<path d="M7.25879 37.8281L16.5027 51.7838C14.4525 52.0575 6.1981 44.9368 5.22585 42.5249L3.80796 40.3219L7.25879 37.8281Z" fill="#FAFBFF"/>
<path d="M20.9391 29.9947L34.8939 52.4422C32.2711 52.9839 32.0278 53.1103 29.4625 53.216L16.8522 32.5194L20.9391 29.9947Z" fill="#FAFBFF"/>
</g>
<path d="M79.9159 15.7428H71.2636V39.7397H67.7325V15.7428H59.0988V12.8217H79.9159V15.7428ZM91.6371 22.805C91.1194 22.7188 90.5586 22.6756 89.9547 22.6756C87.7115 22.6756 86.1894 23.6308 85.3882 25.5412V39.7397H81.968V19.7361H85.2958L85.3512 22.0471C86.4728 20.2599 88.0628 19.3663 90.1211 19.3663C90.7866 19.3663 91.2919 19.4526 91.6371 19.6252V22.805ZM106.409 39.7397C106.211 39.3453 106.051 38.6428 105.928 37.6322C104.338 39.2837 102.44 40.1095 100.234 40.1095C98.2618 40.1095 96.641 39.5549 95.3716 38.4456C94.1144 37.324 93.4858 35.9066 93.4858 34.1934C93.4858 32.1105 94.2746 30.4959 95.8522 29.3497C97.4422 28.1911 99.673 27.6118 102.545 27.6118H105.873V26.0404C105.873 24.8449 105.515 23.8958 104.8 23.1933C104.085 22.4784 103.032 22.121 101.639 22.121C100.419 22.121 99.3957 22.4291 98.5699 23.0454C97.7441 23.6616 97.3313 24.4073 97.3313 25.2824H93.8925C93.8925 24.2841 94.2438 23.3227 94.9463 22.3983C95.6612 21.4616 96.6226 20.7221 97.8304 20.1798C99.0506 19.6375 100.388 19.3663 101.842 19.3663C104.147 19.3663 105.953 19.9456 107.259 21.1042C108.566 22.2504 109.243 23.8342 109.293 25.8555V35.0624C109.293 36.8988 109.527 38.3593 109.995 39.4439V39.7397H106.409ZM100.733 37.133C101.805 37.133 102.822 36.8557 103.783 36.301C104.745 35.7464 105.441 35.0254 105.873 34.138V30.0337H103.192C99.0013 30.0337 96.906 31.2601 96.906 33.7128C96.906 34.7851 97.2635 35.6232 97.9783 36.2271C98.6932 36.831 99.6114 37.133 100.733 37.133ZM113.822 29.5715C113.822 26.5026 114.549 24.0376 116.004 22.1765C117.458 20.3031 119.362 19.3663 121.716 19.3663C124.058 19.3663 125.913 20.1675 127.281 21.7697V11.3427H130.701V39.7397H127.559L127.392 37.5952C126.024 39.2714 124.12 40.1095 121.68 40.1095C119.362 40.1095 117.47 39.1605 116.004 37.2624C114.549 35.3643 113.822 32.887 113.822 29.8304V29.5715ZM117.242 29.9598C117.242 32.2276 117.711 34.0024 118.648 35.2842C119.584 36.566 120.878 37.2069 122.53 37.2069C124.699 37.2069 126.283 36.2333 127.281 34.2859V25.0975C126.258 23.2118 124.687 22.2689 122.567 22.2689C120.891 22.2689 119.584 22.916 118.648 24.2101C117.711 25.5042 117.242 27.4208 117.242 29.9598ZM144.327 40.1095C141.615 40.1095 139.409 39.2221 137.708 37.4473C136.007 35.6601 135.157 33.2752 135.157 30.2926V29.664C135.157 27.6796 135.533 25.911 136.285 24.358C137.049 22.7927 138.109 21.5725 139.465 20.6975C140.833 19.81 142.312 19.3663 143.902 19.3663C146.502 19.3663 148.524 20.2229 149.966 21.9361C151.408 23.6493 152.129 26.102 152.129 29.2942V30.7178H138.577C138.627 32.6898 139.2 34.2859 140.297 35.5061C141.406 36.7139 142.811 37.3179 144.512 37.3179C145.72 37.3179 146.743 37.0714 147.581 36.5784C148.419 36.0854 149.152 35.4321 149.781 34.6187L151.87 36.2456C150.194 38.8215 147.679 40.1095 144.327 40.1095ZM143.902 22.1765C142.521 22.1765 141.363 22.6818 140.426 23.6925C139.489 24.6908 138.91 26.0959 138.688 27.9076H148.708V27.6488C148.61 25.911 148.142 24.5675 147.303 23.6185C146.465 22.6571 145.331 22.1765 143.902 22.1765ZM162.445 31.2539L162.962 34.8035L163.72 31.6052L169.045 12.8217H172.04L177.235 31.6052L177.974 34.859L178.548 31.2354L182.726 12.8217H186.294L179.768 39.7397H176.532L170.986 20.1243L170.561 18.0722L170.136 20.1243L164.386 39.7397H161.151L154.643 12.8217H158.193L162.445 31.2539ZM201.435 39.7397C201.238 39.3453 201.078 38.6428 200.955 37.6322C199.365 39.2837 197.467 40.1095 195.26 40.1095C193.288 40.1095 191.668 39.5549 190.398 38.4456C189.141 37.324 188.512 35.9066 188.512 34.1934C188.512 32.1105 189.301 30.4959 190.879 29.3497C192.469 28.1911 194.7 27.6118 197.571 27.6118H200.899V26.0404C200.899 24.8449 200.542 23.8958 199.827 23.1933C199.112 22.4784 198.058 22.121 196.665 22.121C195.445 22.121 194.422 22.4291 193.597 23.0454C192.771 23.6616 192.358 24.4073 192.358 25.2824H188.919C188.919 24.2841 189.27 23.3227 189.973 22.3983C190.688 21.4616 191.649 20.7221 192.857 20.1798C194.077 19.6375 195.414 19.3663 196.869 19.3663C199.174 19.3663 200.979 19.9456 202.286 21.1042C203.592 22.2504 204.27 23.8342 204.319 25.8555V35.0624C204.319 36.8988 204.554 38.3593 205.022 39.4439V39.7397H201.435ZM195.76 37.133C196.832 37.133 197.849 36.8557 198.81 36.301C199.771 35.7464 200.468 35.0254 200.899 34.138V30.0337H198.218C194.028 30.0337 191.933 31.2601 191.933 33.7128C191.933 34.7851 192.29 35.6232 193.005 36.2271C193.72 36.831 194.638 37.133 195.76 37.133ZM215.985 35.0993L220.94 19.7361H224.434L217.261 39.7397H214.654L207.407 19.7361H210.901L215.985 35.0993ZM235.767 40.1095C233.055 40.1095 230.849 39.2221 229.148 37.4473C227.447 35.6601 226.597 33.2752 226.597 30.2926V29.664C226.597 27.6796 226.973 25.911 227.725 24.358C228.489 22.7927 229.549 21.5725 230.905 20.6975C232.273 19.81 233.752 19.3663 235.342 19.3663C237.942 19.3663 239.964 20.2229 241.406 21.9361C242.848 23.6493 243.569 26.102 243.569 29.2942V30.7178H230.017C230.066 32.6898 230.64 34.2859 231.737 35.5061C232.846 36.7139 234.251 37.3179 235.952 37.3179C237.16 37.3179 238.183 37.0714 239.021 36.5784C239.859 36.0854 240.592 35.4321 241.221 34.6187L243.31 36.2456C241.634 38.8215 239.119 40.1095 235.767 40.1095ZM235.342 22.1765C233.961 22.1765 232.803 22.6818 231.866 23.6925C230.929 24.6908 230.35 26.0959 230.128 27.9076H240.148V27.6488C240.05 25.911 239.581 24.5675 238.743 23.6185C237.905 22.6571 236.771 22.1765 235.342 22.1765Z" fill="#FAFBFF"/>
</g>
<defs>
<clipPath id="clip0">
<rect width="262" height="53.7166" fill="white"/>
</clipPath>
<clipPath id="clip1">
<rect width="53.7166" height="53.7166" fill="white"/>
</clipPath>
</defs>
</svg>
